<?xml version="1.0" standalone="no"?>
<!DOCTYPE svg PUBLIC "-//W3C//DTD SVG 20010904//EN"
 "http://www.w3.org/TR/2001/REC-SVG-20010904/DTD/svg10.dtd">
<svg version="1.0" xmlns="http://www.w3.org/2000/svg"
 width="298.000000pt" height="298.000000pt" viewBox="0 0 298.000000 298.000000"
 preserveAspectRatio="xMidYMid meet">
<metadata>
Created by potrace 1.11, written by Peter Selinger 2001-2013
</metadata>
<g transform="translate(0.000000,298.000000) scale(0.100000,-0.100000)"
fill="#000000" stroke="none">
<path d="M1520 2294 c-28 -42 -50 -82 -50 -89 0 -8 -4 -15 -9 -17 -10 -4 -81
-114 -81 -126 0 -15 -36 -43 -51 -40 -8 2 -47 35 -87 73 -41 39 -79 75 -86 80
-6 6 -42 38 -79 73 -65 62 -67 63 -109 57 -23 -4 -46 -9 -50 -11 -4 -3 -20 -7
-35 -9 -16 -2 -41 -7 -58 -11 -16 -4 -39 -8 -50 -9 -11 -2 -20 -4 -20 -5 0 -1
-7 -3 -15 -5 -119 -25 -180 -38 -255 -55 -49 -11 -101 -22 -115 -25 -47 -7
-80 -24 -80 -42 0 -9 66 -83 146 -164 164 -165 172 -182 89 -186 -28 -1 -79
-4 -115 -8 -36 -3 -103 -8 -150 -11 -47 -3 -101 -6 -120 -8 -19 -2 -42 -4 -51
-5 -9 0 -19 -7 -22 -15 -4 -9 26 -26 101 -56 132 -52 264 -107 317 -130 22 -9
57 -23 78 -31 21 -7 44 -20 50 -28 9 -10 12 -87 13 -267 0 -183 4 -259 13
-276 8 -15 72 -52 184 -108 241 -120 681 -344 687 -350 7 -7 50 -28 83 -40 23
-8 37 -5 87 21 33 16 65 36 72 42 7 7 24 18 38 24 29 14 102 57 221 128 46 28
91 53 99 56 25 11 183 107 210 128 l24 20 1 203 c1 199 6 248 27 248 6 0 36
15 67 34 55 33 92 55 181 104 65 36 90 50 135 77 22 14 55 32 73 41 18 9 34
19 37 23 9 15 -13 32 -46 36 -80 9 -157 17 -199 20 -25 2 -65 6 -90 10 -25 3
-58 7 -75 9 -43 5 -65 16 -65 32 0 17 72 157 83 162 4 2 7 9 7 16 0 6 11 28
25 49 14 20 22 37 18 37 -4 0 -3 4 4 8 13 9 83 142 83 160 0 13 -29 27 -76 36
-16 3 -74 15 -129 26 -55 12 -111 23 -125 25 -14 2 -25 4 -25 5 0 3 -30 10
-75 18 -25 5 -50 11 -56 14 -6 4 -28 9 -50 12 -21 3 -50 8 -64 11 -14 3 -37 8
-51 10 -14 2 -53 10 -85 19 -32 8 -75 17 -94 20 -60 10 -94 17 -130 26 -69 19
-77 15 -130 -66z"/>
</g>
</svg>
